<svg width="30" height="30" viewBox="0 0 30 30" fill="none" xmlns="http://www.w3.org/2000/svg">
<g id="ic:baseline-telegram">
<path id="Vector" d="M14.998 2.5C8.09804 2.5 2.49805 8.1 2.49805 15C2.49805 21.9 8.09804 27.5 14.998 27.5C21.898 27.5 27.498 21.9 27.498 15C27.498 8.1 21.898 2.5 14.998 2.5ZM20.798 11C20.6105 12.975 19.798 17.775 19.3855 19.9875C19.2105 20.925 18.8605 21.2375 18.5355 21.275C17.8105 21.3375 17.2605 20.8 16.5605 20.3375C15.4605 19.6125 14.8355 19.1625 13.773 18.4625C12.5355 17.65 13.3355 17.2 14.048 16.475C14.2355 16.2875 17.4355 13.375 17.498 13.1125C17.5067 13.0727 17.5056 13.0315 17.4947 12.9923C17.4838 12.953 17.4635 12.9171 17.4355 12.8875C17.3605 12.825 17.2605 12.85 17.173 12.8625C17.0605 12.8875 15.3105 14.05 11.898 16.35C11.398 16.6875 10.948 16.8625 10.548 16.85C10.098 16.8375 9.24804 16.6 8.61054 16.3875C7.82304 16.1375 7.21054 16 7.26054 15.5625C7.28554 15.3375 7.59804 15.1125 8.18554 14.875C11.8355 13.2875 14.2605 12.2375 15.473 11.7375C18.948 10.2875 19.6605 10.0375 20.1355 10.0375C20.2355 10.0375 20.473 10.0625 20.623 10.1875C20.748 10.2875 20.7855 10.425 20.798 10.525C20.7855 10.6 20.8105 10.825 20.798 11Z" fill="black"/>
</g>
</svg>
