<svg width="30" height="30" viewBox="0 0 30 30" fill="none" xmlns="http://www.w3.org/2000/svg">
<g id="ic:baseline-tiktok">
<path id="Vector" d="M20.7453 7.27488C19.8908 6.29941 19.4199 5.04667 19.4203 3.74988H15.5578V19.2499C15.528 20.0887 15.1739 20.8832 14.57 21.466C13.9661 22.0489 13.1596 22.3748 12.3203 22.3749C10.5453 22.3749 9.07031 20.9249 9.07031 19.1249C9.07031 16.9749 11.1453 15.3624 13.2828 16.0249V12.0749C8.97031 11.4999 5.19531 14.8499 5.19531 19.1249C5.19531 23.2874 8.64531 26.2499 12.3078 26.2499C16.2328 26.2499 19.4203 23.0624 19.4203 19.1249V11.2624C20.9866 12.3872 22.867 12.9907 24.7953 12.9874V9.12488C24.7953 9.12488 22.4453 9.23738 20.7453 7.27488Z" fill="black"/>
</g>
</svg>
