<svg width="40" height="40" viewBox="0 0 40 40" fill="none" xmlns="http://www.w3.org/2000/svg">
<path d="M7.4 7.4C7.63188 7.16778 7.90727 6.98356 8.21041 6.85787C8.51355 6.73218 8.8385 6.66748 9.16666 6.66748C9.49483 6.66748 9.81977 6.73218 10.1229 6.85787C10.4261 6.98356 10.7014 7.16778 10.9333 7.4L20 16.4633L29.0667 7.4C29.2987 7.16799 29.5741 6.98396 29.8772 6.8584C30.1803 6.73284 30.5052 6.66822 30.8333 6.66822C31.1614 6.66822 31.4863 6.73284 31.7894 6.8584C32.0926 6.98396 32.368 7.16799 32.6 7.4C32.832 7.632 33.016 7.90742 33.1416 8.21055C33.2671 8.51367 33.3318 8.83856 33.3318 9.16666C33.3318 9.49476 33.2671 9.81965 33.1416 10.1228C33.016 10.4259 32.832 10.7013 32.6 10.9333L23.5367 20L32.6 29.0667C33.0685 29.5352 33.3318 30.1707 33.3318 30.8333C33.3318 31.496 33.0685 32.1314 32.6 32.6C32.1314 33.0685 31.496 33.3318 30.8333 33.3318C30.1707 33.3318 29.5352 33.0685 29.0667 32.6L20 23.5367L10.9333 32.6C10.4648 33.0685 9.82929 33.3318 9.16666 33.3318C8.50403 33.3318 7.86854 33.0685 7.4 32.6C6.93145 32.1314 6.66822 31.496 6.66822 30.8333C6.66822 30.1707 6.93145 29.5352 7.4 29.0667L16.4633 20L7.4 10.9333C7.16778 10.7014 6.98356 10.4261 6.85787 10.1229C6.73218 9.81977 6.66748 9.49483 6.66748 9.16666C6.66748 8.8385 6.73218 8.51355 6.85787 8.21041C6.98356 7.90727 7.16778 7.63188 7.4 7.4Z" fill="black"/>
</svg>
